<?xml version='1.0' encoding='utf-8'?>
<svg xmlns:xlink="http://www.w3.org/1999/xlink" xmlns="http://www.w3.org/2000/svg" viewBox="0 0 43.5 46.82"> <g transform="translate(-18.25 -17.292)"> <path transform="translate(10,20)" d="m50 22.362c0 11.046-8.9543 20-20 20s-20-8.9543-20-20 8.9543-20 20-20 20 8.9543 20 20z" fill="none" stroke="#000" stroke-width="3.5"/> <path d="m40 27.362v15" fill="none" stroke="#000" stroke-linecap="round" stroke-linejoin="round" stroke-width="1.5"/> <path d="m34.202 28.528 5.7982 13.834" fill="none" stroke="#000" stroke-linecap="round" stroke-linejoin="round" stroke-width="1.2"/> <path id="k" d="m55 42.362h-2" fill="none" stroke="#000" stroke-width=".63246"/> <use id="j" transform="matrix(.86602 -.5 .5 .86602 -15.822 25.675)" width="744.09448" height="1052.3622" xlink:href="#k"/> <use id="i" transform="matrix(.86602 -.5 .5 .86602 -15.822 25.675)" width="744.09448" height="1052.3622" xlink:href="#j"/> <use id="h" transform="matrix(.86602 -.5 .5 .86602 -15.822 25.675)" width="744.09448" height="1052.3622" xlink:href="#i"/> <use id="g" transform="matrix(.86602 -.5 .5 .86602 -15.822 25.675)" width="744.09448" height="1052.3622" xlink:href="#h"/> <use id="f" transform="matrix(.86602 -.5 .5 .86602 -15.822 25.675)" width="744.09448" height="1052.3622" xlink:href="#g"/> <use id="e" transform="matrix(.86602 -.5 .5 .86602 -15.822 25.675)" width="744.09448" height="1052.3622" xlink:href="#f"/> <use id="d" transform="matrix(.86602 -.5 .5 .86602 -15.822 25.675)" width="744.09448" height="1052.3622" xlink:href="#e"/> <use id="c" transform="matrix(.86602 -.5 .5 .86602 -15.822 25.675)" width="744.09448" height="1052.3622" xlink:href="#d"/> <use id="b" transform="matrix(.86602 -.5 .5 .86602 -15.822 25.675)" width="744.09448" height="1052.3622" xlink:href="#c"/> <use id="a" transform="matrix(.86602 -.5 .5 .86602 -15.822 25.675)" width="744.09448" height="1052.3622" xlink:href="#b"/> <use transform="matrix(.86602 -.5 .5 .86602 -15.822 25.675)" width="744.09448" height="1052.3622" xlink:href="#a"/> <path d="m38.4333,18.6616h3.13339a.30924,.30924 0 0,1 .30924.30924v1.95804a.30924,.30924 0 0,1 -.30924.30924h-3.13339a.30924,.30924 0 0,1 -.30924-.30924v-1.95804a.30924,.30924 0 0,1 .30924-.30924" stroke="#000" stroke-linecap="round" stroke-linejoin="round" stroke-width="2.7481"/> <path transform="matrix(.86602 -.5 .5 .86602 0 0)" d="m11.46 33.687h4v2h-4z" stroke="#000" stroke-linecap="round" stroke-linejoin="round" stroke-width="2.5"/> <path transform="rotate(30)" d="m53.822-6.3133h4v2h-4z" stroke="#000" stroke-linecap="round" stroke-linejoin="round" stroke-width="2.5"/> </g> </svg>